<?xml version="1.0" standalone="no"?>
<!DOCTYPE svg PUBLIC "-//W3C//DTD SVG 20010904//EN"
 "http://www.w3.org/TR/2001/REC-SVG-20010904/DTD/svg10.dtd">
<svg version="1.0" xmlns="http://www.w3.org/2000/svg"
 width="1024.000000pt" height="520.000000pt" viewBox="0 0 1024.000000 520.000000"
 preserveAspectRatio="xMidYMid meet">
<metadata>
Created by potrace 1.16, written by Peter Selinger 2001-2019
</metadata>
<g transform="translate(0.000000,520.000000) scale(0.100000,-0.100000)"
fill="#000000" stroke="none">
<path d="M8462 4600 c-239 -48 -435 -152 -607 -323 -190 -188 -304 -424 -337
-694 -7 -60 -17 -103 -23 -103 -6 0 -44 -16 -85 -36 -105 -51 -206 -84 -256
-84 -64 0 -74 7 -74 51 0 49 28 80 69 77 52 -4 64 17 58 97 l-5 70 34 30 c35
30 35 30 25 83 -18 90 -72 139 -141 128 -20 -3 -63 -1 -95 5 l-58 10 -48 -51
c-46 -49 -51 -52 -84 -46 -31 6 -35 5 -35 -14 0 -12 10 -43 21 -71 18 -41 20
-54 10 -77 -13 -30 -2 -71 37 -149 20 -38 64 -69 83 -58 24 16 5 -18 -30 -52
-132 -127 -193 -190 -279 -292 -203 -238 -217 -262 -193 -341 14 -49 13 -106
-3 -150 -7 -19 -36 -97 -64 -172 -30 -81 -66 -161 -90 -195 -33 -47 -43 -72
-52 -133 -6 -41 -16 -78 -23 -82 -16 -10 -65 -10 -104 1 -17 5 -35 6 -39 2 -5
-3 -8 -5 -7 -2 1 2 -4 13 -12 25 -12 17 -15 77 -15 348 l0 328 -182 -1 c-183
0 -256 -9 -193 -23 50 -12 60 -21 69 -72 5 -27 9 -162 9 -300 1 -222 -1 -254
-16 -278 -10 -14 -15 -27 -12 -27 3 -1 10 -3 15 -4 6 -1 76 -3 156 -4 l146 -1
-6 -34 -6 -33 100 -7 c55 -4 100 -10 100 -13 0 -3 -8 -18 -17 -34 -18 -29 -38
-38 -45 -18 -2 7 -55 12 -143 14 -77 2 -165 8 -195 13 -64 12 -76 5 -82 -44
-4 -32 -2 -35 31 -43 86 -22 135 -22 169 -1 17 11 32 27 32 35 0 9 9 15 23 15
36 0 49 -14 41 -43 -6 -25 -4 -27 25 -27 26 0 31 -4 31 -25 0 -20 -5 -25 -27
-26 -16 -1 -31 -1 -35 0 -5 0 -8 -2 -8 -7 0 -4 -28 -6 -62 -5 -48 1 -67 -3
-86 -18 l-25 -19 24 -1 c13 -1 33 -3 44 -4 11 -1 66 -2 123 -3 75 -2 101 -5
96 -13 -10 -16 -495 -6 -749 15 -355 30 -712 69 -1030 112 -113 16 -435 50
-560 60 -38 3 -114 9 -169 15 -54 5 -104 9 -110 9 -7 0 -18 11 -24 25 -14 30
-66 36 -76 9 -6 -15 -20 -16 -114 -11 -59 3 -138 12 -177 21 -50 11 -154 17
-360 20 -159 3 -310 10 -335 16 -31 8 -58 8 -90 1 -25 -6 -146 -12 -270 -13
-225 -3 -225 -3 -228 19 -4 25 15 37 69 47 47 8 84 38 109 86 l19 37 -61 7
c-33 3 -77 6 -97 6 l-37 0 -2 569 c-3 630 -4 621 60 661 22 14 43 19 63 15 32
-5 77 17 63 31 -16 15 -181 21 -358 13 -102 -5 -241 -6 -309 -3 -115 6 -123 6
-120 -11 3 -14 21 -22 68 -31 77 -16 99 -34 105 -88 3 -22 11 -455 17 -961 6
-506 14 -942 17 -970 l7 -50 48 -7 c27 -3 62 -11 79 -17 50 -18 58 -14 58 22
0 43 32 76 54 57 9 -6 18 -20 21 -31 8 -25 41 -24 83 1 39 24 42 24 42 5 0
-22 52 -19 84 6 14 11 26 27 26 35 0 8 4 14 9 14 4 0 6 10 4 23 -7 37 11 102
29 105 29 6 38 -29 26 -97 -6 -33 -8 -64 -4 -68 3 -4 47 -9 96 -11 109 -5 135
7 145 66 6 40 36 81 58 83 24 1 -29 18 -63 19 -19 1 -28 4 -20 7 8 4 36 21 62
39 45 30 52 32 113 27 l65 -5 0 31 c0 28 3 31 33 32 17 0 100 3 182 6 239 8
259 7 324 -16 75 -26 78 -26 122 -2 20 11 41 16 50 11 8 -4 116 -10 242 -14
163 -4 237 -10 262 -20 31 -13 36 -13 55 2 20 17 20 17 1 49 -35 56 -63 67
-183 72 -94 3 -108 1 -108 -13 0 -20 -19 -21 -26 -1 -9 23 -62 34 -174 37 -75
2 -104 0 -103 -9 4 -20 -28 -25 -34 -4 -4 15 -18 19 -71 25 -93 8 -164 7 -181
-3 -10 -7 -11 -13 -1 -31 18 -33 6 -34 -29 -1 -43 41 -59 45 -183 45 -125 1
-156 15 -92 42 33 14 55 15 139 8 55 -5 163 -8 240 -6 148 3 278 -8 490 -39
71 -10 132 -15 135 -11 3 5 43 3 90 -4 47 -7 164 -18 260 -24 96 -6 211 -18
255 -26 44 -7 112 -14 150 -14 39 0 99 -5 135 -10 385 -55 1306 -111 1553 -93
l118 8 32 -27 c18 -15 42 -27 55 -28 12 0 22 -5 22 -11 0 -5 4 -8 9 -4 5 3 13
0 16 -6 4 -6 18 -8 30 -5 13 3 57 6 99 7 78 1 87 6 92 44 1 18 -4 24 -26 29
-38 7 -184 -3 -188 -13 -1 -4 -9 -17 -16 -27 -14 -18 -15 -18 -27 8 -10 24 -7
42 25 141 20 62 36 123 36 135 0 37 22 74 39 66 9 -4 58 -9 109 -12 79 -3 96
-1 113 14 10 9 19 25 19 35 0 16 -9 19 -62 20 -168 4 -156 2 -153 26 2 17 72
208 81 221 1 2 57 -4 124 -12 67 -9 148 -16 181 -16 l59 0 0 -44 c0 -24 9 -72
19 -106 19 -61 19 -62 0 -81 -19 -19 -45 -27 -35 -10 5 8 -84 22 -93 14 -8 -6
7 -14 27 -16 11 0 19 -4 16 -8 -2 -4 14 -7 36 -6 24 1 45 8 50 17 7 11 10 11
10 2 0 -7 5 -10 12 -6 7 4 8 3 4 -4 -4 -7 -2 -20 3 -29 8 -14 11 -15 11 -3 0
10 8 6 25 -12 32 -37 43 -111 21 -148 -17 -30 -20 -127 -5 -167 12 -33 37 -19
33 18 -3 21 0 28 8 23 8 -5 9 -2 4 11 -5 15 -4 16 9 5 11 -9 12 -15 5 -20 -14
-8 -2 -40 15 -40 7 0 15 -7 19 -15 4 -12 23 -15 83 -15 l78 0 -32 20 c-48 29
-80 85 -87 155 -4 34 -17 78 -31 103 -14 25 -25 57 -25 71 0 15 -6 50 -14 77
-8 27 -18 72 -21 99 -15 110 -47 284 -66 350 -10 39 -23 109 -28 155 -4 47
-20 120 -35 163 -31 92 -33 123 -7 136 10 6 22 22 25 35 8 32 69 75 118 82 32
6 40 13 66 63 16 31 33 73 36 93 6 34 10 37 49 43 23 3 130 5 237 3 l195 -3
16 -60 c157 -579 718 -956 1299 -871 491 72 865 417 981 902 33 137 34 374 1
509 -110 464 -464 805 -927 895 -135 26 -304 26 -433 0z m289 -97 c-10 -41
-23 -68 -30 -68 -8 0 -21 25 -30 55 l-17 54 -12 -40 c-6 -23 -12 -49 -12 -58
0 -11 -6 -16 -17 -14 -22 4 -59 138 -38 138 9 0 16 -18 21 -45 3 -25 10 -45
14 -45 4 0 13 20 19 45 7 28 17 45 26 45 9 0 19 -17 26 -45 6 -25 15 -45 19
-45 4 0 10 19 14 42 8 47 14 60 26 53 4 -3 0 -35 -9 -72z m-227 31 c7 -18 -8
-50 -26 -57 -9 -4 -8 -6 3 -6 9 -1 24 -10 33 -20 28 -31 -1 -37 -33 -7 -37 35
-51 33 -51 -9 0 -42 -16 -47 -24 -7 -14 75 -16 103 -11 112 11 17 102 12 109
-6z m388 -59 c9 -43 11 -75 6 -75 -6 0 -12 9 -15 19 -6 23 -59 39 -76 22 -6
-6 -17 -11 -24 -11 -19 0 59 119 78 120 12 0 20 -18 31 -75z m163 25 c37 -16
46 -24 43 -41 -2 -17 -24 -39 -45 -45 -2 0 1 -15 6 -32 7 -24 6 -32 -4 -32 -7
0 -16 15 -19 34 -4 19 -13 40 -22 46 -12 11 -17 8 -27 -19 -12 -32 -27 -42
-27 -17 0 14 40 126 46 126 1 0 23 -9 49 -20z m-736 -26 c29 -37 27 -78 -5
-103 -15 -12 -35 -21 -46 -21 -28 0 -68 48 -68 81 0 65 80 93 119 43z m935
-86 c14 -24 -2 -66 -36 -91 -27 -20 -28 -20 -64 -1 -19 10 -38 23 -41 27 -2 4
7 23 21 42 14 18 26 38 26 42 0 5 5 14 12 21 14 14 63 -11 82 -40z m-1140 27
c-3 -8 -14 -17 -25 -20 -21 -7 -25 -30 -9 -40 6 -4 22 0 35 9 13 9 26 12 29 7
3 -5 -6 -16 -20 -26 -24 -16 -25 -18 -10 -40 19 -29 20 -35 4 -35 -12 1 -84
108 -77 114 2 1 17 12 33 24 33 26 48 28 40 7z m534 -432 c-3 -341 -5 -408
-17 -408 -8 0 -35 52 -68 130 -30 72 -79 191 -110 265 -31 74 -76 181 -99 236
-24 56 -44 104 -44 107 0 20 196 67 318 75 l22 2 -2 -407z m213 380 c109 -22
107 -19 76 -105 -105 -297 -189 -536 -213 -605 -16 -46 -33 -81 -39 -80 -6 2
-11 151 -13 411 l-2 407 57 -6 c32 -3 92 -13 134 -22z m254 -96 c72 -42 135
-87 135 -95 0 -5 -57 -75 -126 -157 -69 -83 -180 -215 -246 -295 -153 -184
-146 -176 -158 -164 -7 7 11 69 54 190 36 98 90 251 121 339 31 88 64 179 72
202 l15 42 42 -16 c22 -9 63 -30 91 -46z m-791 -34 c43 -105 77 -186 86 -208
11 -24 26 -62 87 -210 25 -60 58 -140 74 -178 29 -64 30 -87 7 -87 -5 0 -138
128 -295 284 l-285 284 69 54 c90 72 208 142 224 133 3 -2 18 -35 33 -72z
m1033 -162 c37 -43 85 -107 106 -142 l37 -64 -22 -17 c-13 -10 -26 -18 -30
-18 -3 0 -73 -32 -155 -71 -273 -131 -523 -249 -528 -249 -1 0 -6 7 -9 16 -4
10 19 45 67 101 39 48 99 119 132 158 33 39 115 137 183 218 68 81 129 147
137 147 8 0 45 -35 82 -79z m-1078 -255 c240 -240 282 -287 276 -305 -8 -27
-13 -27 -93 8 -37 15 -107 45 -157 66 -123 52 -284 119 -380 160 -44 19 -93
39 -108 45 l-29 10 46 86 c43 80 139 214 154 214 4 0 135 -128 291 -284z
m1247 -13 c30 -69 64 -217 64 -280 l0 -63 -404 0 c-483 0 -480 -1 -298 86 64
31 144 69 177 84 33 15 139 66 235 112 148 72 190 91 207 97 2 1 10 -16 19
-36z m-1586 -84 c80 -33 159 -66 175 -74 17 -7 75 -32 130 -55 198 -82 290
-122 294 -126 2 -2 -181 -4 -408 -4 l-412 0 6 53 c14 115 50 267 64 267 3 0
71 -27 151 -61z m610 -287 c0 -5 -42 -28 -92 -52 -51 -24 -218 -103 -372 -177
-153 -73 -280 -133 -281 -133 -4 0 -51 145 -59 181 -13 60 -26 171 -20 180 7
11 824 12 824 1z m1040 -51 c0 -57 -42 -247 -58 -263 -4 -4 -64 17 -133 48
-68 31 -155 69 -194 84 -100 40 -405 176 -412 184 -4 3 174 6 395 6 l402 0 0
-59z m-655 -71 c115 -51 285 -125 543 -236 l32 -14 -20 -41 c-37 -72 -148
-219 -165 -219 -11 0 -575 567 -575 578 0 14 4 13 185 -68z m-391 13 c-21 -27
-41 -50 -44 -53 -4 -3 -42 -48 -86 -100 -43 -53 -135 -163 -204 -245 -69 -83
-132 -158 -140 -168 -15 -18 -19 -16 -78 42 -59 59 -91 101 -141 184 l-23 37
179 86 c98 47 232 111 298 142 66 31 154 73 195 93 41 20 77 35 79 33 2 -2
-14 -25 -35 -51z m480 -252 l289 -289 -37 -32 c-20 -18 -56 -46 -79 -63 -44
-33 -168 -99 -174 -94 -2 2 -23 53 -47 113 -24 60 -71 174 -105 254 -167 402
-166 400 -143 400 4 0 137 -130 296 -289z m-414 269 c0 -8 -68 -204 -120 -345
-62 -168 -140 -392 -140 -403 0 -19 -30 -14 -89 13 -68 32 -193 115 -189 125
2 5 44 57 94 117 51 59 167 197 258 306 153 181 186 214 186 187z m40 -410 l0
-410 -52 0 c-48 0 -225 33 -235 44 -5 4 34 124 55 176 6 14 50 135 97 270 113
322 116 330 126 330 5 0 9 -184 9 -410z m80 323 c18 -49 37 -93 42 -100 5 -6
13 -24 18 -40 4 -15 29 -77 55 -138 80 -190 155 -375 155 -384 0 -22 -193 -71
-280 -71 l-50 0 0 410 c0 461 2 473 60 323z m-621 -615 c20 -12 38 -23 40 -24
4 -4 -70 -114 -76 -114 -2 0 -17 7 -32 15 -51 26 -56 81 -10 119 17 14 33 26
36 26 3 0 22 -10 42 -22z m115 -103 c14 -47 32 -56 46 -21 9 24 30 36 30 17 0
-16 -50 -121 -57 -121 -5 1 -24 9 -43 18 -28 14 -35 23 -35 47 0 23 5 31 21
33 19 3 21 7 14 38 -11 49 10 39 24 -11z m156 -45 c0 -22 59 -34 67 -13 5 14
33 19 32 6 -1 -19 -76 -118 -91 -121 -12 -2 -18 7 -22 37 -3 23 -9 59 -12 81
-5 34 -3 39 10 34 9 -3 16 -14 16 -24z m616 22 c7 -4 19 -31 28 -61 19 -66 19
-61 2 -61 -9 0 -17 15 -21 39 -9 55 -26 75 -54 66 -20 -6 -22 -12 -16 -39 15
-74 17 -96 7 -96 -11 0 -32 75 -32 114 0 36 53 60 86 38z m-151 -103 c7 -53 6
-56 -17 -62 -46 -13 -68 -8 -80 18 -14 31 0 50 43 59 25 5 29 9 24 26 -3 11
-3 25 1 31 11 18 21 -8 29 -72z m-272 25 c15 -68 19 -71 34 -21 12 41 35 68
47 56 2 -2 7 -34 11 -71 9 -82 -8 -93 -22 -15 l-9 52 -12 -40 c-7 -22 -16 -46
-21 -54 -16 -25 -41 6 -41 50 0 52 -13 49 -28 -6 -7 -27 -18 -45 -26 -45 -15
0 -14 0 29 128 9 25 30 6 38 -34z m-2223 -458 c0 -2 -8 -10 -17 -17 -16 -13
-17 -12 -4 4 13 16 21 21 21 13z"/>
<path d="M8458 4533 c-10 -2 -18 -13 -18 -24 0 -16 6 -20 28 -17 19 2 27 9 27
22 0 21 -10 26 -37 19z"/>
<path d="M8861 4501 c-16 -28 -14 -37 9 -38 15 -1 20 4 20 22 0 32 -16 40 -29
16z"/>
<path d="M9030 4471 c0 -19 18 -31 46 -31 21 0 17 28 -5 40 -29 15 -41 12 -41
-9z"/>
<path d="M8258 4466 c-17 -17 -13 -59 8 -76 17 -15 54 -9 67 11 14 22 -12 73
-39 77 -12 2 -28 -4 -36 -12z"/>
<path d="M9191 4376 c-27 -43 -26 -55 2 -66 18 -7 26 -3 44 18 27 32 28 45 7
66 -22 23 -30 20 -53 -18z"/>
<path d="M8062 2618 c-16 -22 -23 -56 -12 -63 6 -3 8 -10 5 -14 -2 -5 4 -8 15
-7 28 1 73 65 59 83 -14 16 -53 17 -67 1z"/>
<path d="M8204 2478 c-7 -12 21 -38 42 -38 21 0 24 29 4 40 -24 13 -37 13 -46
-2z"/>
<path d="M8408 2444 c-8 -7 2 -44 12 -44 8 0 20 24 20 41 0 10 -23 12 -32 3z"/>
<path d="M8808 2403 c-10 -2 -18 -13 -18 -24 0 -14 7 -19 30 -19 17 0 30 4 30
9 0 16 -12 41 -19 40 -3 -1 -14 -3 -23 -6z"/>
<path d="M4774 3115 c-45 -20 -74 -72 -74 -131 0 -116 104 -176 217 -125 50
23 73 63 73 127 0 55 -28 108 -70 129 -36 18 -104 18 -146 0z"/>
<path d="M5818 3114 c-39 -14 -49 -23 -59 -51 -17 -53 -13 -133 9 -162 41 -56
135 -78 192 -45 45 27 82 93 77 135 -14 113 -103 162 -219 123z"/>
<path d="M3623 3113 c-29 -11 -10 -23 36 -23 29 0 53 -6 60 -14 15 -18 26
-567 16 -858 l-7 -227 -40 21 c-51 27 -96 20 -150 -24 l-42 -33 104 -12 c93
-11 110 -11 152 4 53 19 70 13 44 -16 -10 -10 -13 -21 -9 -24 5 -3 63 -9 129
-13 106 -6 124 -4 147 11 36 23 34 31 -12 55 -56 28 -136 35 -188 16 -24 -8
-43 -11 -43 -6 0 5 -12 20 -26 33 l-26 24 38 51 38 50 56 -49 c79 -68 142 -89
272 -89 95 0 108 2 163 30 74 37 119 63 123 70 1 3 18 30 37 58 122 187 66
472 -111 558 -46 22 -75 29 -145 32 -99 5 -149 -8 -178 -44 -16 -20 -20 -21
-25 -8 -3 9 -6 110 -6 225 l0 209 -197 -1 c-109 0 -204 -3 -210 -6z m576 -439
c39 -50 51 -117 51 -283 -1 -165 -12 -282 -31 -324 -12 -27 -79 -63 -102 -54
-8 3 -27 21 -41 39 -22 30 -27 50 -37 159 -12 134 -7 361 11 421 13 46 43 68
91 68 29 0 43 -6 58 -26z"/>
<path d="M5140 3100 c19 -11 42 -19 51 -20 14 0 19 -16 25 -82 9 -92 8 -887
-2 -930 -4 -21 -14 -30 -45 -39 -41 -13 -49 -23 -24 -33 13 -4 13 -10 0 -47
-8 -23 -15 -45 -15 -49 0 -22 168 -42 218 -26 13 5 23 16 23 29 1 12 3 32 4
45 2 20 -2 22 -51 22 -30 0 -54 4 -54 9 0 12 86 23 162 21 122 -4 180 0 176
11 -2 7 -19 17 -38 23 -32 10 -36 15 -42 61 -3 28 -7 269 -7 538 l-1 487 -207
0 -208 -1 35 -19z"/>
<path d="M3133 2725 c-123 -33 -211 -104 -260 -210 -24 -53 -28 -71 -27 -155
0 -127 23 -185 101 -261 49 -48 70 -60 138 -82 146 -47 245 -44 350 8 89 44
175 133 175 183 0 36 -13 26 -59 -44 -66 -100 -122 -126 -224 -104 -108 22
-177 133 -177 281 l0 59 236 0 236 0 -6 38 c-25 141 -75 212 -191 267 -67 32
-83 35 -157 34 -46 0 -107 -7 -135 -14z m176 -38 c24 -27 41 -107 41 -199 l0
-58 -100 0 -100 0 0 68 c0 67 17 149 39 190 17 32 89 31 120 -1z"/>
<path d="M4610 2720 c-13 -8 -13 -9 0 -13 75 -21 75 -21 80 -62 3 -22 4 -161
2 -308 -2 -197 -6 -266 -14 -261 -6 4 -29 10 -49 14 -34 6 -41 4 -54 -17 -10
-15 -15 -40 -13 -66 3 -40 4 -42 43 -48 109 -18 155 -20 155 -8 0 18 32 38 62
39 23 0 27 -5 30 -32 3 -36 11 -38 139 -51 53 -5 58 -4 77 22 34 47 32 73 -8
93 -19 10 -41 25 -47 35 -10 13 -13 98 -13 345 l0 328 -187 0 c-104 0 -195 -4
-203 -10z"/>
<path d="M1924 2436 c-7 -22 -24 -102 -24 -119 0 -16 11 -18 118 -17 201 2
242 0 242 -9 0 -5 -18 -12 -41 -16 l-41 -7 23 -24 c26 -28 41 -30 72 -10 19
13 31 13 84 2 42 -9 113 -12 230 -8 152 4 173 3 197 -13 l28 -19 -4 25 c-2 16
-14 29 -36 39 -30 14 -32 18 -27 50 4 19 11 39 16 44 20 22 7 34 -44 39 -29 4
-91 16 -138 28 -96 24 -205 21 -225 -6 -15 -20 -21 -19 -27 5 -3 13 -14 20
-30 20 -14 0 -32 2 -40 6 -9 3 -19 -6 -27 -26 -22 -53 -80 -66 -80 -18 0 13
-4 28 -8 34 -10 15 -212 15 -218 0z"/>
<path d="M1911 2281 c-48 -13 -33 -29 51 -54 80 -24 112 -31 151 -28 25 2 21
18 -10 35 -27 15 -27 15 -5 16 20 0 21 3 12 20 -9 18 -20 20 -93 19 -45 -1
-93 -4 -106 -8z"/>
<path d="M2530 2178 l0 -33 -62 -3 c-70 -3 -120 -29 -157 -80 l-21 -30 23 -6
c12 -3 69 -4 127 -3 116 3 154 17 184 67 24 42 20 49 -31 53 l-48 3 50 2 c32
1 57 -4 70 -14 19 -15 19 -17 -30 -59 -27 -24 -47 -46 -44 -49 3 -4 45 -11 93
-18 66 -8 100 -8 140 1 35 8 61 8 77 2 31 -11 159 -26 159 -17 0 3 -23 17 -51
31 -37 19 -59 24 -80 20 -28 -6 -29 -5 -24 18 5 19 1 29 -17 41 -32 23 -143
56 -187 56 -20 0 -60 11 -89 25 -72 33 -82 32 -82 -7z"/>
<path d="M2300 2180 c-21 -21 -56 -27 -62 -10 -2 6 -32 1 -73 -11 -60 -18 -78
-29 -125 -78 l-55 -56 80 -3 c122 -5 203 6 210 28 3 10 17 29 31 43 14 14 29
40 34 57 15 52 -4 66 -40 30z"/>
<path d="M4464 2070 c-21 -17 -60 -45 -87 -62 -26 -17 -45 -33 -43 -36 3 -2
32 -1 66 3 70 8 96 29 106 82 4 19 4 36 2 39 -3 2 -22 -9 -44 -26z"/>
<path d="M6637 1986 c-10 -25 -9 -26 11 -26 9 0 24 -5 32 -11 11 -8 5 -9 -25
-5 -30 5 -36 4 -23 -4 9 -6 47 -9 85 -8 37 1 78 -1 91 -4 23 -7 26 -1 16 26
-8 21 -25 10 -18 -12 5 -13 4 -14 -4 -3 -6 9 -24 12 -51 9 -29 -2 -41 0 -41 9
0 7 -10 13 -21 13 -12 0 -27 7 -34 16 -11 16 -12 15 -18 0z"/>
<path d="M7151 1964 c0 -11 3 -14 6 -6 3 7 2 16 -1 19 -3 4 -6 -2 -5 -13z"/>
<path d="M4154 1936 c-3 -8 -19 -20 -35 -26 -51 -21 -35 -37 52 -50 94 -15
174 -8 209 18 36 27 31 45 -15 58 -59 18 -204 18 -211 0z"/>
<path d="M5443 1908 c-8 -30 -8 -45 -1 -49 17 -10 184 -30 201 -23 18 6 42 59
33 72 -5 8 -46 16 -186 37 -35 5 -36 5 -47 -37z"/>
<path d="M4450 1900 c-19 -11 -45 -25 -57 -32 -61 -31 -3 -48 166 -48 69 -1
112 -6 151 -20 80 -28 184 -27 241 3 46 25 63 52 32 53 -10 1 -67 5 -126 9
-91 7 -110 5 -120 -8 -7 -8 -23 -18 -37 -22 -25 -8 -25 -7 -7 13 18 20 18 21
-10 35 -29 16 -58 22 -148 32 -39 4 -58 1 -85 -15z"/>
<path d="M5059 1831 c-33 -7 -88 -39 -89 -52 0 -11 110 -29 174 -29 45 0 73 6
105 23 23 13 43 28 42 33 -1 19 -171 37 -232 25z"/>
<path d="M6291 1791 c-6 -11 -11 -22 -11 -24 0 -3 52 -6 114 -6 106 -2 116 0
126 19 13 25 2 26 -16 3 -13 -16 -13 -16 -8 -1 4 12 0 17 -13 16 -10 -1 -55 2
-100 6 -75 7 -82 6 -92 -13z"/>
<path d="M5344 1794 c-12 -3 -31 -16 -44 -29 l-22 -23 52 -11 c68 -15 112 -13
189 7 68 18 87 35 49 46 -30 9 -197 16 -224 10z"/>
<path d="M6575 1784 c45 -17 203 -24 250 -10 l30 9 -25 7 c-14 4 -86 8 -160 8
-132 2 -134 1 -95 -14z"/>
<path d="M5603 1749 c-18 -12 -31 -25 -28 -29 3 -4 52 -11 110 -15 88 -6 113
-5 150 10 86 32 45 55 -97 55 -87 0 -108 -4 -135 -21z"/>
<path d="M3771 1695 c19 -28 46 -53 65 -61 34 -14 224 -20 224 -7 0 3 -14 28
-31 55 -30 46 -33 48 -78 48 -25 0 -83 3 -129 7 l-83 6 32 -48z"/>
<path d="M4050 1700 c1 -25 43 -67 84 -84 26 -11 69 -16 132 -16 l94 0 -19 39
c-26 50 -57 62 -186 70 -90 5 -105 4 -105 -9z"/>
<path d="M4340 1684 c0 -3 7 -18 16 -34 30 -50 67 -63 192 -68 l112 -5 -10 29
-11 29 28 -27 c33 -32 101 -48 204 -48 74 0 82 7 54 47 -19 28 -65 40 -182 51
-95 8 -117 6 -107 -9 7 -13 -3 -11 -34 5 -40 20 -262 46 -262 30z"/>
<path d="M2588 1631 c-30 -26 -43 -29 -128 -36 -109 -8 -122 -13 -89 -31 l24
-13 -27 -1 c-29 0 -31 -4 -42 -83 -10 -73 11 -83 88 -42 37 20 46 22 46 9 0
-12 10 -14 46 -12 43 3 47 6 72 50 30 53 26 65 -30 78 -28 7 -25 8 22 7 l55
-2 3 -67 3 -68 41 0 c25 0 49 7 60 17 17 15 19 15 38 -2 14 -13 28 -16 55 -11
43 8 47 18 67 144 l14 92 -30 0 c-17 0 -53 -11 -79 -24 l-48 -25 -52 25 c-66
30 -69 30 -109 -5z"/>
<path d="M6720 1649 c0 -4 -20 -7 -44 -5 -35 2 -43 -1 -38 -12 4 -11 -1 -11
-21 3 -33 22 -63 13 -63 -19 0 -21 6 -26 37 -31 21 -4 47 -2 58 4 26 14 52 15
31 1 -11 -8 -7 -9 15 -4 37 8 44 14 19 15 -18 0 -18 1 1 9 28 12 45 12 45 -1
0 -5 -5 -7 -12 -3 -7 4 -8 3 -4 -4 9 -15 46 3 46 21 0 7 -4 6 -10 -3 -8 -12
-10 -10 -10 8 0 13 -4 20 -10 17 -5 -3 -10 -2 -10 3 0 5 -7 9 -15 9 -8 0 -15
-4 -15 -8z m-123 -15 c-3 -3 -12 -4 -19 -1 -8 3 -5 6 6 6 11 1 17 -2 13 -5z
m133 -4 c-8 -5 -26 -9 -40 -9 -23 1 -23 2 5 9 43 11 52 11 35 0z m-143 -16
c-3 -3 -12 -4 -19 -1 -8 3 -5 6 6 6 11 1 17 -2 13 -5z m40 -20 c-3 -3 -12 -4
-19 -1 -8 3 -5 6 6 6 11 1 17 -2 13 -5z"/>
<path d="M4934 1629 c-4 -7 31 -40 69 -64 40 -25 237 -36 237 -13 0 28 -40 67
-73 72 -49 8 -228 12 -233 5z"/>
<path d="M5240 1613 c0 -16 26 -46 53 -60 23 -12 62 -18 140 -20 59 -2 107 1
107 6 0 11 -30 36 -65 54 -27 13 -235 31 -235 20z"/>
<path d="M2955 1589 c-4 -6 2 -13 13 -16 20 -5 20 -6 -5 -27 -18 -15 -26 -35
-30 -68 l-5 -45 37 -7 c30 -6 44 -3 66 13 24 18 29 18 39 6 7 -8 29 -15 49
-15 51 0 75 44 65 118 l-7 52 -108 0 c-66 0 -110 -4 -114 -11z"/>
<path d="M5550 1575 c40 -44 79 -55 190 -55 55 0 100 2 100 5 0 19 -26 54 -44
58 -11 3 -77 9 -146 12 l-125 7 25 -27z"/>
<path d="M5830 1587 c0 -2 17 -18 38 -33 35 -27 44 -29 154 -34 94 -4 119 -2
123 9 4 11 -14 13 -102 10 -107 -4 -108 -4 -106 19 2 19 -2 22 -36 22 -22 0
-46 3 -55 6 -9 3 -16 4 -16 1z"/>
<path d="M6558 1573 c7 -3 16 -2 19 1 4 3 -2 6 -13 5 -11 0 -14 -3 -6 -6z"/>
<path d="M3859 1558 c0 -2 -2 -12 -3 -23 -1 -11 -6 -36 -9 -55 -9 -47 3 -64
45 -60 61 4 83 4 128 -4 43 -7 46 -6 63 23 17 28 17 32 0 69 -16 39 -17 40
-82 46 -67 6 -140 8 -142 4z"/>
<path d="M3246 1538 c-3 -7 -7 -34 -10 -59 l-5 -46 114 0 115 -1 15 51 c8 28
15 54 15 59 0 14 -240 10 -244 -4z"/>
<path d="M4165 1538 c-38 -116 -35 -124 43 -125 37 -1 85 -4 108 -8 32 -5 43
-3 55 11 15 19 18 100 3 113 -5 5 -53 11 -107 15 -75 5 -98 3 -102 -6z"/>
<path d="M3546 1518 c-3 -13 -6 -39 -6 -59 0 -35 1 -36 43 -37 23 -1 78 -6
122 -11 44 -5 82 -8 84 -6 2 2 0 31 -4 63 -6 57 -8 60 -37 66 -17 3 -68 6
-113 6 -77 0 -83 -1 -89 -22z"/>
<path d="M4461 1502 c-5 -15 -13 -43 -16 -63 l-7 -36 107 -6 c58 -3 113 -3
121 0 18 7 28 45 20 77 -8 31 -43 43 -138 49 -75 5 -76 5 -87 -21z"/>
<path d="M4757 1502 c-4 -5 -9 -34 -13 -64 l-6 -54 66 7 c36 3 85 3 108 -1 58
-11 72 2 65 58 -2 23 -8 46 -11 50 -11 11 -203 15 -209 4z"/>
<path d="M6608 1503 l-48 -4 0 -40 c0 -46 -7 -44 139 -28 55 7 102 17 104 23
2 6 1 21 -4 34 -8 20 -14 22 -76 20 -37 -1 -89 -3 -115 -5z m162 -28 c10 -12
10 -15 -2 -15 -8 0 -15 7 -15 15 0 8 1 15 2 15 2 0 8 -7 15 -15z m-154 -4 c-4
-5 20 -7 56 -4 35 3 60 3 57 -1 -4 -4 -36 -9 -72 -11 -54 -3 -65 -1 -60 11 3
8 9 14 15 14 5 0 7 -4 4 -9z"/>
<path d="M6948 1502 c11 -7 11 -12 -2 -25 -19 -19 -21 -34 -3 -18 8 6 16 9 19
6 2 -3 4 5 3 17 -1 12 -8 24 -16 26 -11 3 -11 2 -1 -6z"/>
<path d="M5052 1464 c-6 -22 -12 -49 -15 -62 l-5 -23 121 3 122 3 3 53 3 52
-43 0 c-24 0 -73 3 -110 6 l-66 7 -10 -39z"/>
<path d="M5345 1444 c-9 -24 -21 -44 -26 -44 -18 0 -8 -27 14 -37 15 -6 29 -6
46 3 22 11 26 10 43 -11 30 -38 55 -41 86 -10 15 15 37 31 50 36 18 7 22 16
22 49 0 24 -5 42 -12 45 -7 2 -57 5 -110 8 l-96 4 -17 -43z"/>
<path d="M6035 1482 c-66 -3 -85 -17 -85 -64 l0 -28 108 0 c94 0 111 3 126 19
17 18 16 20 -17 47 -38 30 -44 31 -132 26z"/>
<path d="M6260 1454 c-33 -53 -21 -58 112 -48 l113 9 3 31 c4 39 -10 44 -125
44 l-81 0 -22 -36z"/>
<path d="M5668 1473 c-14 -3 -18 -15 -18 -50 l0 -46 38 7 c20 3 71 6 113 6
l77 0 4 36 c4 31 1 37 -20 45 -23 9 -162 11 -194 2z"/>
<path d="M2756 1346 c5 -13 34 -26 62 -26 18 0 15 27 -4 34 -30 11 -64 7 -58
-8z"/>
<path d="M2526 1180 c-15 -10 -47 -21 -70 -24 -22 -4 -52 -15 -65 -25 -23 -17
-23 -21 -11 -50 34 -84 167 -122 261 -75 45 23 53 40 40 84 -14 49 -43 70 -95
70 -38 0 -39 0 -21 20 23 26 2 26 -39 0z"/>
</g>
</svg>
